<?xml version="1.0" encoding="UTF-8"?><svg id="Layer_2" xmlns="http://www.w3.org/2000/svg" viewBox="0 0 1050.9995 1050.9995"><g id="Components"><g id="_16f4fb93-955d-4507-92bc-0d7df08f8ceb_1"><path d="M946.7831,839.6181c-79.6937,106.8821-235.5512,103.5713-357.8199,121.3887-122.2688,17.8174-270.6997,65.47-377.5818-14.2237-106.8821-79.6937-103.5713-235.5512-121.3887-357.8199-17.8174-122.2688-65.47-270.6997,14.2237-377.5818,79.6937-106.8821,235.5512-103.5713,357.8199-121.3887,122.2688-17.8174,270.6997-65.47,377.5818,14.2237,106.8821,79.6937,103.5713,235.5512,121.3887,357.8199,17.8174,122.2688,65.47,270.6997-14.2237,377.5818Z" style="fill:#7788a9; stroke-width:0px;"/><path d="M1050.9995,525.4998c0,133.3224-126.9271,223.8323-214.2973,311.2025-87.3702,87.3702-177.88,214.2973-311.2025,214.2973s-223.8323-126.9271-311.2025-214.2973C126.9271,749.332,0,658.8222,0,525.4998s126.9271-223.8323,214.2973-311.2025C301.6675,126.9271,392.1773,0,525.4998,0s223.8323,126.9271,311.2025,214.2973,214.2973,177.8801,214.2973,311.2025Z" style="fill:#b5e2fa; stroke-width:0px;"/><path d="M299.0479,797.8675v-6.8945c2.1871,0,3.89-.1312,5.1086-.3946,1.2182-.2629,2.215-.7958,2.9904-1.599.775-.8028,1.2875-1.8412,1.5367-3.115.2492-1.2734.3738-3.0456.3738-5.3162v-53.1624h9.5941v53.3285c0,3.0735-.2284,5.6348-.6853,7.6836-.4569,2.0492-1.246,3.8073-2.3674,5.2747-1.1214,1.4678-2.6581,2.5335-4.6102,3.198-1.9521.6645-4.4096.9968-7.3721.9968h-4.5686Z" style="fill:#f9f7f3; stroke-width:0px;"/><path d="M325.6706,796.2477l14.7027-68.8619h9.2619l14.7027,68.8619h-9.1373l-3.1565-17.3608h-13.9967l-3.2811,17.3608h-9.0958ZM339.2935,772.0339h11.5047l-5.7731-31.1083-5.7316,31.1083Z" style="fill:#f9f7f3; stroke-width:0px;"/><path d="M369.1558,796.2477v-6.8945l20.2266-55.0729h-18.9806v-6.8945h29.1978v4.1533l-21.348,57.8141h21.3896v6.8945h-30.4853Z" style="fill:#f9f7f3; stroke-width:0px;"/><path d="M404.5835,796.2477v-6.8945l20.2266-55.0729h-18.9806v-6.8945h29.1978v4.1533l-21.348,57.8141h21.3896v6.8945h-30.4853Z" style="fill:#f9f7f3; stroke-width:0px;"/><path d="M442.6279,796.2477v-68.8619h9.428v68.8619h-9.428Z" style="fill:#f9f7f3; stroke-width:0px;"/><path d="M463.6852,796.2477v-68.8619h9.428v68.8619h-9.428Z" style="fill:#f9f7f3; stroke-width:0px;"/><path d="M503.7231,796.2477v-68.8619h14.9519c7.4481,0,12.7021,1.6892,15.7618,5.067,3.0593,3.3783,4.5894,8.6945,4.5894,15.9487v25.3352c0,7.559-1.516,13.2009-4.5479,16.9247-3.0319,3.7243-8.0645,5.5862-15.0973,5.5862h-15.658ZM513.3172,789.3532h5.3993c1.4674,0,2.762-.1454,3.8833-.4361,1.1214-.2907,2.0559-.6367,2.8035-1.0383.7476-.4012,1.3772-1.045,1.8898-1.9313.5121-.8859.8996-1.7029,1.1629-2.4505.2629-.7476.4635-1.8549.6022-3.3226.1383-1.4674.2214-2.7204.2492-3.7587.0274-1.0383.0415-2.5402.0415-4.5063v-22.3863c0-1.6613-.0278-3.0593-.0831-4.1948-.0557-1.1351-.1661-2.2702-.3323-3.4057-.1661-1.1351-.4153-2.0625-.7476-2.7827-.3323-.7198-.7617-1.4051-1.2875-2.0559-.5262-.6504-1.177-1.1488-1.9521-1.4952-.7754-.346-1.6892-.6159-2.7412-.8099-1.0524-.1935-2.2843-.2907-3.6964-.2907h-5.1916v54.8652Z" style="fill:#f9f7f3; stroke-width:0px;"/><path d="M548.5373,796.2477v-68.8619h26.6643v7.1022h-17.0701v22.7601h13.8721v6.853h-13.8721v25.2521h17.2778v6.8945h-26.8719Z" style="fill:#f9f7f3; stroke-width:0px;"/><path d="M599.3739,796.9953c-5.7872,0-10.1964-1.7859-13.2283-5.3578-3.0319-3.5718-4.7281-8.4586-5.0878-14.6612l8.5558-2.3259c.6089,9.8575,3.8626,14.7858,9.7603,14.7858,2.4642,0,4.3402-.6853,5.6277-2.0559,1.2875-1.3706,1.9313-3.3849,1.9313-6.0431,0-1.4674-.1732-2.8101-.5192-4.0287-.3464-1.2182-.9137-2.3811-1.7029-3.4888-.7891-1.1073-1.5367-2.0281-2.2428-2.762-.7061-.7335-1.7099-1.7095-3.0112-2.9281l-11.5462-10.2587c-2.3259-2.1041-4.0221-4.3261-5.0878-6.6661-1.0662-2.3396-1.599-5.1983-1.599-8.5766,0-4.984,1.4466-8.8673,4.3402-11.65,2.8932-2.7827,6.8459-4.2015,11.8577-4.2571,5.5098-.0831,9.6357,1.3361,12.3769,4.2571,2.7412,2.9214,4.3884,7.4415,4.9424,13.5606l-8.099,2.2428c-.1109-1.4952-.2633-2.8243-.4569-3.9872-.194-1.1629-.5125-2.3325-.9553-3.5095-.4432-1.1766-.9831-2.1319-1.6198-2.8658-.6371-.7335-1.4815-1.3149-2.5335-1.7444-1.0524-.429-2.2706-.6022-3.6549-.5192-5.067.3601-7.6006,2.8799-7.6006,7.559,0,2.0214.346,3.7106,1.0383,5.067.6919,1.3569,1.8549,2.7827,3.4888,4.2779l11.6293,10.2587c3.0178,2.7138,5.4201,5.6211,7.206,8.722,1.7859,3.1013,2.6789,6.6179,2.6789,10.5494,0,5.0396-1.523,9.0335-4.5686,11.9823-3.046,2.9489-7.0191,4.4233-11.92,4.4233Z" style="fill:#f9f7f3; stroke-width:0px;"/><path d="M623.8784,796.2477v-68.8619h9.428v68.8619h-9.428Z" style="fill:#f9f7f3; stroke-width:0px;"/><path d="M660.8844,797.0784c-6.2578,0-10.7712-1.9728-13.5398-5.9185-2.769-3.9456-4.1533-9.781-4.1533-17.5062v-23.0509c0-3.1565.1728-5.9251.5192-8.3066.346-2.3811.9411-4.5823,1.7859-6.6038.8444-2.021,1.9587-3.6686,3.3434-4.9424,1.3843-1.2734,3.1424-2.2636,5.2747-2.9696,2.1319-.7061,4.6376-1.0591,7.5175-1.0591,6.3683,0,10.9506,1.6198,13.7475,4.8594,2.7964,3.2396,4.1948,8.3345,4.1948,15.2842v2.5335h-9.0127v-2.1597c0-1.9379-.0557-3.537-.1661-4.7971-.1109-1.2597-.3393-2.4571-.6853-3.5926-.3464-1.1351-.8448-2.0144-1.4952-2.6374-.6508-.623-1.5023-1.1143-2.5543-1.4744-1.0524-.3597-2.3537-.5399-3.9041-.5399-1.1908,0-2.2428.1317-3.1565.3946-.9137.2633-1.6892.6093-2.3259,1.0383-.6371.4295-1.17,1.0246-1.599,1.7859-.4295.7617-.7684,1.5093-1.0176,2.2428-.2492.7339-.4432,1.6754-.5815,2.8243-.1387,1.1492-.2218,2.1946-.2492,3.1358-.0278.9416-.0415,2.1182-.0415,3.5303v25.5013c0,5.2888.6367,9.082,1.9105,11.3801,1.2734,2.2984,3.7102,3.4472,7.3098,3.4472s6.0638-1.246,7.3929-3.738c1.3291-2.492,1.9936-6.4929,1.9936-12.0031v-4.8178h-8.722v-6.8114h17.4439v34.1402h-6.1054l-.9137-7.9328c-2.0767,5.8425-6.1469,8.7635-12.2107,8.7635Z" style="fill:#f9f7f3; stroke-width:0px;"/><path d="M689.9991,796.2477v-68.8619h6.5207l19.5621,45.728v-45.728h8.0159v68.8619h-6.1469l-19.8528-47.057v47.057h-8.099Z" style="fill:#f9f7f3; stroke-width:0px;"/><circle cx="488.4181" cy="790.3698" r="6.8106" style="fill:#f9f7f3; stroke-width:0px;"/><path d="M491.917,704.4575V244.3188h99.9095c49.7688,0,84.8759,11.287,105.3213,33.8582,20.4426,22.574,30.6667,58.0974,30.6667,106.5701v169.2911c0,50.5098-10.1297,88.209-30.3891,113.092-20.2594,24.8858-53.8873,37.3273-100.8808,37.3273h-104.6274ZM556.0256,658.3881h36.0784c9.805,0,18.4555-.9713,25.9487-2.914,7.4932-1.9427,13.7376-4.2545,18.733-6.9382,4.9955-2.6809,9.2028-6.9826,12.6274-12.905,3.4219-5.9196,6.0112-11.3786,7.7707-16.3741,1.7567-4.9955,3.0972-12.3943,4.0241-22.2021.9242-9.805,1.4792-18.178,1.6652-25.1161.1832-6.9382.2775-16.9735.2775-30.1116v-149.5867c0-11.1011-.1859-20.4426-.5551-28.0302-.3719-7.5848-1.1101-15.1696-2.2202-22.7572-1.1101-7.5848-2.7753-13.782-4.9955-18.5943-2.2202-4.8095-5.0898-9.3887-8.6033-13.7376-3.5163-4.3461-7.8651-7.6764-13.0437-9.9909-5.1814-2.3118-11.287-4.1157-18.3167-5.4118-7.0325-1.2933-15.2639-1.9427-24.6998-1.9427h-34.6908v366.6123Z" style="fill:#f9f7f3; stroke-width:0px;"/><path d="M304.8012,708.8088v-45.7262c14.5057,0,25.7995-.8704,33.8814-2.6169,8.0792-1.7437,14.6902-5.2778,19.833-10.6052,5.1401-5.3246,8.5392-12.2111,10.192-20.6594,1.6528-8.4456,2.4791-20.1994,2.4791-35.2587V241.3552h63.631v353.6891c0,20.384-1.515,37.3715-4.5451,50.9599-3.03,13.5911-8.2638,25.2513-15.7012,34.9833-7.4374,9.7347-17.6294,16.803-30.5759,21.2103-12.9466,4.4073-29.2455,6.611-48.8939,6.611h-30.3005Z" style="fill:#f9f7f3; stroke-width:0px;"/></g></g></svg>